<?xml version="1.0" standalone="no"?>
<!DOCTYPE svg PUBLIC "-//W3C//DTD SVG 1.1//EN" "http://www.w3.org/Graphics/SVG/1.1/DTD/svg11.dtd" >
<svg xmlns="http://www.w3.org/2000/svg">
<metadata>
Created by FontForge 20120731 at Wed Apr  8 10:55:56 2015
 By Ads
</metadata>
<defs>
<font id="iconfont" horiz-adv-x="1024" >
  <font-face 
    font-family="iconfont"
    font-weight="500"
    font-stretch="normal"
    units-per-em="1024"
    panose-1="2 0 6 3 0 0 0 0 0 0"
    ascent="812"
    descent="-212"
    x-height="792"
    bbox="0 -212 1365 812"
    underline-thickness="50"
    underline-position="-100"
    unicode-range="U+0078-E630"
  />
<missing-glyph horiz-adv-x="374" 
d="M34 0v682h272v-682h-272zM68 34h204v614h-204v-614z" />
    <glyph glyph-name=".notdef" horiz-adv-x="374" 
d="M34 0v682h272v-682h-272zM68 34h204v614h-204v-614z" />
    <glyph glyph-name=".null" horiz-adv-x="0" 
 />
    <glyph glyph-name="nonmarkingreturn" horiz-adv-x="341" 
 />
    <glyph glyph-name="x" unicode="x" horiz-adv-x="1001" 
d="M281 543q-27 -1 -53 -1h-83q-18 0 -36.5 -6t-32.5 -18.5t-23 -32t-9 -45.5v-76h912v41q0 16 -0.5 30t-0.5 18q0 13 -5 29t-17 29.5t-31.5 22.5t-49.5 9h-133v-97h-438v97zM955 310v-52q0 -23 0.5 -52t0.5 -58t-10.5 -47.5t-26 -30t-33 -16t-31.5 -4.5q-14 -1 -29.5 -0.5
t-29.5 0.5h-32l-45 128h-439l-44 -128h-29h-34q-20 0 -45 1q-25 0 -41 9.5t-25.5 23t-13.5 29.5t-4 30v167h911zM163 247q-12 0 -21 -8.5t-9 -21.5t9 -21.5t21 -8.5q13 0 22 8.5t9 21.5t-9 21.5t-22 8.5zM316 123q-8 -26 -14 -48q-5 -19 -10.5 -37t-7.5 -25t-3 -15t1 -14.5
t9.5 -10.5t21.5 -4h37h67h81h80h64h36q23 0 34 12t2 38q-5 13 -9.5 30.5t-9.5 34.5q-5 19 -11 39h-368zM336 498v228q0 11 2.5 23t10 21.5t20.5 15.5t34 6h188q31 0 51.5 -14.5t20.5 -52.5v-227h-327z" />
    <glyph glyph-name="uniE600" unicode="&#xe600;" 
d="M946 -66l-195 195q81 103 81 235q0 159 -112.5 271.5t-271.5 112.5t-271.5 -112.5t-112.5 -271.5t112.5 -271.5t271.5 -112.5q132 0 235 81l195 -195q14 -14 34 -14t34 14q9 9 12.5 21.5t0 25t-12.5 21.5zM160 364q0 119 84.5 203.5t203.5 84.5t203.5 -84.5t84.5 -203.5
t-84.5 -203.5t-203.5 -84.5t-203.5 84.5t-84.5 203.5z" />
    <glyph glyph-name="uniE601" unicode="&#xe601;" 
d="M728 309q-10 2 -15.5 5.5t-6 7t0 6.5t1.5 5l2 2l3 6q2 4 6 16t4.5 23.5t-4 26t-16.5 25.5q-14 14 -37 18.5t-46 1t-44 -9t-34 -11.5l-13 -5q-10 -3 -16.5 -4.5t-10.5 0t-5.5 3.5t-1.5 7.5t0.5 9t2.5 12.5t3 15q0 12 -1.5 23t-6.5 23.5t-15 21t-24.5 14t-38 3t-54.5 -12.5
q-35 -12 -71.5 -36.5t-64.5 -50.5t-50.5 -50.5t-33.5 -40.5l-12 -15q-34 -45 -49.5 -89t-16.5 -66t1 -22q5 -49 29 -88t57.5 -63t79 -41t86.5 -24.5t88 -11.5q45 -4 93.5 1.5t97 20t90.5 36t76 53t51 69.5q11 23 15.5 44.5t2 38t-8 31t-15.5 25.5t-20 19.5t-21.5 14t-20.5 9
t-16 4.5zM415 -9q-110 -5 -188 43t-78 122q0 73 77.5 125.5t188.5 57.5q55 3 103.5 -7t84.5 -29.5t57 -49t21 -65.5q0 -75 -78.5 -133.5t-187.5 -63.5zM386 275q-109 -13 -128 -109q-5 -26 -3 -47v-5q0 -3 2 -11.5t6 -16.5t12 -17.5t20 -15.5q67 -33 125.5 -20t94.5 59
q14 18 18.5 43.5t-2 51.5t-23 47.5t-48.5 33.5t-74 7zM348 80q-13 -1 -24.5 3t-18 13t-6.5 20q0 18 13.5 33t33.5 17q23 2 37.5 -9t14.5 -29q0 -17 -14.5 -31t-35.5 -17zM436 155q-3 -2 -5.5 -3t-5 -1.5t-4.5 -0.5t-4 1t-4 2.5t-3 3.5q-3 4 -3 9.5t2 10.5t7 8q8 6 15.5 5
t11.5 -7.5t1.5 -14.5t-8.5 -13zM800 369q9 0 15.5 6t8.5 15v2q4 33 -1.5 58.5t-17 39.5t-26.5 23t-30.5 11.5t-28 3.5t-21.5 0l-8 -1q-10 0 -17 -7.5t-7 -17.5t7 -17t17 -7q32 6 50.5 0.5t26 -19.5t9.5 -28.5t0 -25.5l-2 -12q0 -10 7.5 -17t17.5 -7zM782 653q-51 12 -121 -2
l-1 -1h-2l-1 -1q-11 -3 -18.5 -12.5t-7.5 -21.5q0 -9 5 -17.5t13 -13t18 -4.5q19 2 32 8q5 0 17.5 1.5t33.5 -4t42 -13.5t43.5 -26.5t37.5 -44.5q27 -61 11 -117q-7 -17 -7 -34q0 -14 10 -22.5t25 -8.5t23 5.5t11 23.5q10 31 13 60.5t0.5 53.5t-9.5 46t-17.5 39.5
t-24.5 32.5t-29 26.5t-32 21t-33 15.5t-32 10z" />
    <glyph glyph-name="uniE602" unicode="&#xe602;" 
d="M887 377l-189 -164l67 -255q2 -4 3 -8t1 -8q1 -14 -12 -22l-7 -3v0h-1q-1 0 -3 -0.5t-4 0.5q-2 0 -4.5 0.5t-5 1.5t-4.5 2t-3.5 3t-3.5 4l-210 138l-209 -138q-7 -12 -24 -11h-2h-1h-2q-1 0 -2 1l-1 1h-1l-1 1q-15 7 -14 22q0 9 4 16l67 255l-189 164q-11 13 -5 29
q4 10 14 14q3 2 6 2.5t6 -0.5h215l113 251q4 5 10 8t14 3h2h1h2q16 -1 24 -11l113 -251h216q6 1 11 -2q10 -4 14 -14q6 -17 -5 -29z" />
    <glyph glyph-name="uniE603" unicode="&#xe603;" 
d="M309 693q-69 -13 -125.5 -46.5t-91.5 -78.5t-51.5 -99.5t-10 -107t38 -103t86.5 -86.5q10 -6 9 -13.5t-15 -48.5l-16 -48l58 31l57 30l31 -7q24 -6 51.5 -10t48.5 -4h16l-6 22q-16 60 2 120.5t61 105.5t108.5 73.5t139.5 28.5h27l-5 19q-22 76 -85 133t-150.5 81
t-177.5 8zM284 549q23 -16 24 -43t-21 -41q-17 -11 -35.5 -8.5t-29.5 14.5t-14.5 29t8.5 35q7 10 19.5 15.5t25.5 5t23 -6.5zM527 549q17 -12 21 -31t-3.5 -34.5t-24.5 -23.5t-37 -1q-30 12 -32.5 44t25.5 47q11 6 26 5.5t25 -6.5zM636 427q-106 -20 -171.5 -92t-61.5 -164
q3 -61 37.5 -113t88.5 -82.5t122.5 -42t137.5 9.5l22 6l46 -25q46 -25 48 -23q0 1 -3 12.5t-8 27.5q-11 34 -10.5 40t14.5 16q54 39 78 91t18.5 103.5t-35.5 100t-76.5 83t-111.5 49.5t-135 3zM631 294q9 -7 13 -20t0 -24q-8 -25 -35 -26t-37 22q-7 17 1.5 33t24.5 20t33 -5
zM829 290q14 -14 12 -33.5t-19 -28.5q-26 -13 -46.5 6.5t-7.5 45.5q6 11 17 16t23 3.5t21 -9.5z" />
    <glyph glyph-name="uniE604" unicode="&#xe604;" 
d="M513 506h-3l-218 -37v-193h221v230zM513 1q10 3 21.5 6.5t24 8.5t24.5 11t25 13q24 14 46.5 30.5t39.5 35.5q9 9 15.5 19t11.5 20q4 7 6 14t3.5 14t1.5 14v89h-219v-275zM512 812q-104 0 -199 -40.5t-163.5 -109t-109 -163.5t-40.5 -199t40.5 -199t109 -163.5t163.5 -109
t199 -40.5t199 40.5t163.5 109t109 163.5t40.5 199t-40.5 199t-109 163.5t-163.5 109t-199 40.5zM787 193q0 -27 -13.5 -54.5t-36 -53t-51 -48.5t-58 -40.5t-57.5 -29.5t-49 -16l-6 -1l-6 1q-22 4 -50 16t-58.5 29.5t-60 40.5t-52.5 49q-8 8 -15 17t-12.5 17.5t-10.5 18.5
q-7 13 -10.5 27t-3.5 27v306l22 4l254 47l258 -47l16 -4v-306z" />
    <glyph glyph-name="uniE605" unicode="&#xe605;" 
d="M1016 299.5q0 -102.5 -40 -196t-107.5 -161t-161 -107.5t-196 -40t-195.5 40t-160.5 107.5t-107.5 161t-40 195.5q0 82 25.5 159t72 139t108.5 108.5t139 72t159 25.5q102 0 195.5 -40t161 -107.5t107.5 -160.5t40 -195.5zM691 171q-20 -28 -47.5 -48.5t-61 -32
t-69.5 -11.5q-91 0 -155 64t-64 154h25h46l-114 113l-113 -113h60h1h10q1 -125 89.5 -213.5t214.5 -88.5q71 0 133 31t105 85l-25 24zM840 296h-24v2q0 126 -89 214.5t-214 88.5q-29 0 -57.5 -5t-54 -15.5t-48.5 -24.5t-43 -32.5t-37 -39.5l26 -26l34 -34q31 43 78 68
t102 25q90 0 154.5 -64t64.5 -155v-1v-1h-27h-45l114 -113l113 113h-47zM577 428l-43 -78q-17 -32 -20 -42h-1q-11 25 -64 120h-39l74 -127h-61v-28h71v-39h-71v-29h71v-56h36v56h69v29h-69v39h69v28h-59l75 127h-38z" />
    <glyph glyph-name="uniE606" unicode="&#xe606;" 
d="M1016 299.5q0 -102.5 -40 -196t-107.5 -161t-161 -107.5t-196 -40t-195.5 40t-160.5 107.5t-107.5 161t-40 195.5q0 82 25.5 159t72 139t108.5 108.5t139 72t159 25.5q102 0 195.5 -40t161 -107.5t107.5 -160.5t40 -195.5zM317 283l128 93l105 -69l164 157l34 -27l12 89
l-96 -8l27 -32l-149 -138l-99 65l-144 -106zM229 43h566v32h-537v462h-29v-494zM307 115h138v207l-138 -99v-108zM480 115h121v176l-44 -44l-77 54v-186zM637 115h120v314l-120 -118v-196z" />
    <glyph glyph-name="uniE607" unicode="&#xe607;" 
d="M428 746q60 -143 -31 -276q-25 -36 -58 -73t-55.5 -58t-26 -19.5t-8 27t-6.5 58.5t1 64q6 45 2 44q-2 0 -8 -14q-2 -3 -3 -4q-3 -7 -20 -35.5t-34 -60.5t-36 -72t-32 -85.5t-16 -86.5q-11 -149 150 -254q51 -34 95 -49l-3 3q-2 2 -8.5 10t-11.5 17.5t-10 24t-7.5 31
t-1.5 38.5t7 45q10 39 24 67.5t24.5 39.5t26 24.5t21.5 19.5q30 35 26 105q2 -1 4.5 -4.5t9 -15t9.5 -25.5t6 -37.5t-2 -49.5q1 1 3.5 4.5t10 14.5t14 22t15.5 27.5t16 32t13.5 34.5t10 36t3.5 34.5t-5 32.5q-1 2 2 0q23 -14 66 -72q103 -140 96 -263q-3 -47 -11 -82
t-15 -50t-18 -34.5t-16 -29.5q5 1 14 4.5t35.5 16t50.5 27t55 39t55.5 52.5t44.5 67t27 82q20 106 -16.5 217t-110.5 181q-62 57 -66 59q-3 2 -3 -3q1 -4 15 -47q14 -42 14 -77.5t-5 -49t-11 -22.5q-1 -1 -2.5 2.5t-4.5 12t-8 20.5t-13 29t-18 35.5t-25 42.5t-32 49
q-36 50 -74 87.5t-64.5 54t-48.5 24.5q-27 9 -27 5q0 -1 5 -14z" />
    <glyph glyph-name="uniE608" unicode="&#xe608;" 
d="M541 -108q-123 0 -223 69t-145 180l-68 -18q-20 -5 -42 8q-10 6 -14 20.5t0 27.5l72 214q7 28 31 34.5t45 -14.5l140 -158q19 -18 12 -43.5t-32 -32.5l-62 -16q37 -84 114.5 -135.5t171.5 -51.5q85 0 157.5 42t114.5 114t42 157.5t-42 157.5t-114.5 114t-157.5 42
q-30 0 -59.5 -6t-57.5 -17q-2 -2 -5.5 -5t-16.5 -8.5t-28 -5.5q-11 0 -21 5.5t-15.5 15.5t-5.5 21q0 17 9.5 28t18.5 14l10 2q82 39 171 39q108 0 199.5 -53t144.5 -144.5t53 -199t-53 -199t-144.5 -145t-199.5 -53.5zM541 394q28 0 52.5 -14t38.5 -38t14 -52.5t-14 -52.5
t-38.5 -38t-52.5 -14q-43 0 -73.5 30.5t-30.5 74t30.5 74t73.5 30.5z" />
    <glyph glyph-name="uniE609" unicode="&#xe609;" 
d="M606 427.5q-14 13.5 -33 8.5q-18 -4 -24 -22t-1 -40q6 -23 20.5 -35.5t31.5 -7.5q18 4 24.5 22.5t0.5 39.5q-5 21 -19 34.5zM614 357q-3 -13 -16 -16q-13 -4 -22.5 6.5t-14.5 30.5q-5 19 -1.5 32t15.5 16q14 4 23.5 -7.5t14.5 -30.5q4 -18 1 -31zM456 327q-3 0 -6 -1
t-5.5 -1.5t-5.5 -1.5t-6 -1.5t-6 -1.5q-1 3 -2.5 8.5t-1.5 8.5q2 0 4 1h4l4 2q2 0 4.5 0.5t4.5 1.5h4l4 2q-2 7 -3 12q-4 -1 -12.5 -3.5t-12.5 -3.5q3 10 9 30.5t9 31.5q-12 -3 -15 -4h-1q-1 -5 -4 -16t-4 -17q-5 -17 -6 -24v0l-2 2l-4 4q-4 5 -8.5 10t-8 9t-8.5 9.5t-8 8.5
l-1 1q-3 -1 -16 -4v-1q3 -3 44 -45q-2 -1 -4.5 -1.5t-5 -1.5t-5 -1.5t-5.5 -1t-5 -1.5q0 -1 0.5 -3t1 -3t0.5 -2.5t1 -3.5q16 4 30 8l2 -8q1 -4 2 -9q-5 -1 -10.5 -2.5t-9 -2t-10.5 -2.5q1 -5 3 -12q3 1 7.5 2t7.5 1.5t8 2t7 1.5q1 -2 3 -10.5t3 -13.5q3 1 8 2.5t7 1.5l-2 8
q-1 4 -2 8.5t-2 7.5q7 2 14.5 4t14.5 3q0 2 -1 6t-2 6zM512 812q-104 0 -199 -40.5t-163.5 -109t-109 -163.5t-40.5 -199t40.5 -199t109 -163.5t163.5 -109t199 -40.5t199 40.5t163.5 109t109 163.5t40.5 199t-40.5 199t-109 163.5t-163.5 109t-199 40.5zM834 140
q-12 1 -21.5 1t-21.5 -2q-56 -6 -145 -33q-26 -8 -57.5 -18t-66 -21t-57.5 -18q-86 -27 -141 -38q-53 -11 -86 -10q-5 1 -10 1.5t-11 1.5t-10 1q-3 1 -4 4q-24 94 -54 211q-3 13 -7 27.5t-8.5 32t-6.5 27.5q0 1 -1 3v1q12 1 69 18l1 -6q38 -144 54 -206q0 -3 1.5 -4t3.5 -1
q36 -8 83 -6q32 2 110 19q66 15 119 29q54 14 116 45q23 12 46 20.5t47 12.5q25 5 46 2q2 0 3.5 -1t2.5 -4q4 -15 25 -90v-2q-18 3 -19 3zM836 278q-54 -6 -140 -32q-30 -9 -85.5 -26.5t-68.5 -22.5q-82 -25 -130 -36q-26 -6 -49 -9.5t-45 -4t-41 3.5q-4 1 -5 5
q-18 73 -64 261q-1 2 -7 28q19 -5 41 -3q42 5 67 10q23 5 50 11t44 10.5t50.5 13.5t46.5 12q108 28 160 38q66 13 106 12q20 -1 33 -6q2 0 3 -1t1 -2q29 -81 94 -263q1 0 1 -1v-1q-14 3 -15 3q-20 3 -47 0zM525 324l-24 94l-9 -2q-8 -17 -25 -33l3 -13q13 12 23 29l19 -78
l-30 -8l2 -10l72 18l-3 10zM696 450.5q-14 13.5 -33 8.5t-25 -22.5t0 -39.5q5 -23 19.5 -35.5t32.5 -8.5q18 5 24 23t1 39q-5 22 -19 35.5zM703.5 379.5q-3.5 -13.5 -16.5 -16.5q-12 -3 -21.5 7t-14.5 30q-5 19 -2 32.5t16 16.5t22.5 -8t14.5 -30q5 -18 1.5 -31.5z" />
    <glyph glyph-name="uniE60A" unicode="&#xe60a;" 
d="M512 812q-139 0 -257 -68.5t-186.5 -186.5t-68.5 -257t68.5 -257t186.5 -186.5t257 -68.5t257 68.5t186.5 186.5t68.5 257t-68.5 257t-186.5 186.5t-257 68.5zM512 -133q-166 0 -289 110q-120 108 -141 267q-3 28 -3 56q0 118 58 217.5t157.5 157.5t217.5 58t217.5 -58
t157.5 -157.5t58 -217.5q0 -44 -8.5 -87t-25 -81.5t-40.5 -73.5t-53 -64.5t-64 -53t-73.5 -40t-81.5 -25t-87 -8.5zM282.5 350.5q11.5 11.5 28 11.5t27.5 -11l167 -167q6 -6 9 -13.5t3 -15t-3 -14.5t-9 -13q-11 -11 -27.5 -11t-27.5 11l-167 167q-12 12 -12 28t11.5 27.5z
M450 184l278 278q12 12 28 12t28 -12q8 -7 10.5 -17.5t0 -20.5t-10.5 -17l-279 -279q-11 -11 -27.5 -11t-27.5 11q-21 21 -7 47q3 5 7 9z" />
    <glyph glyph-name="uniE60B" unicode="&#xe60b;" 
d="M514.5 789q-97.5 0 -186.5 -39t-153.5 -104t-102.5 -155.5t-38 -190t38 -190t102.5 -155.5t153.5 -104t186.5 -39t186.5 39t153.5 104t102.5 155.5t38 190t-38 190t-102.5 155.5t-153.5 104t-186.5 39zM514.5 -88q-103.5 0 -192 52t-139.5 141.5t-51 195t51 195
t139.5 141.5t191.5 52q63 0 121 -19.5t105 -55.5t82.5 -84t55 -107t19.5 -122q0 -106 -51.5 -195.5t-139.5 -141.5t-191.5 -52zM753 202l-206 126v236q0 10 -7.5 18t-18.5 8h-14q-7 0 -13 -3.5t-9.5 -9.5t-3.5 -13v-260q0 -18 17 -24l2 -2l219 -133q9 -6 19 -3.5t16 11.5
l7 13q3 4 3.5 8t0.5 8t-1.5 7.5t-4.5 6.5z" />
    <glyph glyph-name="uniE60C" unicode="&#xe60c;" 
d="M512 747q-96 0 -177.5 -46t-128.5 -125.5t-47 -172.5q0 -72 24.5 -143.5t61 -127t87.5 -110.5t92.5 -90t87.5 -69q67 42 127.5 98t112.5 125t83 152t31 165q0 40 -9.5 78.5t-26.5 72.5t-41.5 64t-55 53.5t-65.5 40.5t-74.5 26t-81.5 9zM512 261q-55 0 -93.5 38.5
t-38.5 93.5t38.5 94t93.5 39t94 -39t39 -94t-39 -93.5t-94 -38.5z" />
    <glyph glyph-name="uniE60D" unicode="&#xe60d;" horiz-adv-x="1366" 
d="M1365 -41q0 -43 -22 -82l-431 482l427 373q26 -42 26 -91v-682zM683 271l593 519l-10 6l-12 4q-5 3 -11 4l-12 4l-12 2t-12 1.5t-12 0.5h-1024q-42 0 -82 -22zM848 303l-137 -120q-12 -11 -28 -11q-8 0 -15 2.5t-13 8.5l-138 120l-436 -489q42 -26 90 -26h1024
q48 0 90 26zM26 732q-26 -42 -26 -91v-682q0 -43 22 -83l431 483zM26 732z" />
    <glyph glyph-name="uniE60E" unicode="&#xe60e;" 
d="M396 183q11 -11 24.5 -23t25.5 -20.5t22 -15.5t16 -11l6 -4q3 -2 7.5 -5.5t19.5 -10.5t29 -11t32 -3t32 10q26 16 52.5 34t36 25t22.5 11.5t22.5 1.5t26.5 -12q38 -22 68 -43t48.5 -38t31.5 -33t18.5 -27.5t7.5 -22.5t1.5 -16.5t-1.5 -10.5q-15 -53 -97 -82.5t-177 -5.5
q-218 54 -376 211q-157 158 -211 376q-24 95 5.5 177t82.5 97q5 1 10.5 1.5t16.5 -1.5t22.5 -8t28 -18.5t33 -31t38 -48.5t42.5 -68q9 -17 12 -26.5t-1.5 -22.5t-11 -22.5t-25 -36t-34.5 -52.5q-13 -28 -8.5 -54.5t16.5 -46.5l12 -20q35 -54 74 -93zM396 183z" />
    <glyph glyph-name="uniE60F" unicode="&#xe60f;" horiz-adv-x="1000" 
d="M888 359v333h-333l-416 -416l333 -333zM638 515.5q0 30.5 21.5 52t52.5 21.5q20 0 37 -9.5t26.5 -26.5t9.5 -37t-9.5 -37t-26.5 -27t-37 -10q-31 0 -52.5 21.5t-21.5 52z" />
    <glyph glyph-name="uniE610" unicode="&#xe610;" 
d="M816 573q6 5 12 9l10 8q6 4 10 7q10 9 22.5 7.5t20.5 -10t9 -22t-7 -21.5l-9 -9l-10 -10q-6 -5 -13 -11q13 -16 26 -42.5t24.5 -58.5t18.5 -67.5t7 -70.5q0 -85 -32.5 -160t-88 -130.5t-130 -88t-160 -32.5t-160.5 32.5t-130.5 88t-88 130.5t-32.5 160.5t32.5 160t88 130
t130.5 88t160 32.5q88 0 163 -33t127 -87zM527 619q-70 0 -131.5 -26.5t-107 -72.5t-72 -107.5t-26.5 -131.5t26.5 -131.5t72 -107.5t107 -72t131.5 -26t131.5 26t107.5 72t72.5 107.5t26.5 131.5t-26.5 131.5t-72.5 107.5t-107.5 72.5t-131.5 26.5zM595 755q0 -14 -7 -26
t-17 -20t-22 -12t-22 -4q-11 0 -23 4t-22.5 12t-17 19.5t-6.5 26.5v57h137v-57zM546 271q-9 -6 -18 -5.5t-15 8.5q-6 7 -5 16t9 17l208 176q7 5 17 5t16 -8t5 -17t-10 -17zM558 561q0 -12 -9 -21.5t-22 -9.5t-22 9.5t-9 21.5q0 13 9 22t22 9t22 -9t9 -22zM294 282
q0 -13 -9 -22t-22 -9t-22 9t-9 22t9 22t22 9t22 -9t9 -22zM557 10.5q0 -13.5 -9 -22.5t-22 -9t-22 9t-9 22.5t9 22t22 8.5t22 -8.5t9 -22zM820 282q0 -13 -9 -22t-21 -9q-14 0 -23 9t-9 22t9 22t23 9q12 0 21 -9t9 -22z" />
    <glyph glyph-name="uniE611" unicode="&#xe611;" 
d="M946 302l-443 -443l-42 42l370 371h-771v60h771l-370 370l42 43z" />
    <glyph glyph-name="uniE612" unicode="&#xe612;" 
d="M501.5 769q-93.5 0 -178.5 -36t-146.5 -97.5t-97.5 -146.5t-36 -178q0 -63 16.5 -122.5t46 -109.5t71.5 -92.5t92.5 -72t110 -46t121.5 -16.5q94 0 179 36.5t146 97.5t97.5 146t36.5 178.5t-36.5 178.5t-97.5 146.5t-146 97.5t-178.5 36zM501.5 -83q-106.5 0 -197.5 53
t-143.5 143.5t-52.5 197t52.5 197.5t143.5 143.5t197.5 52.5t197 -52.5t143.5 -143.5t53 -197.5t-53 -197t-143.5 -143.5t-197 -53zM427 210l-131 104l-58 -39l221 -228q5 12 15 32t42 77t65.5 107.5t84 109.5t99.5 97l-20 26q-11 -8 -29.5 -21.5t-68 -52t-90 -73
t-79.5 -74.5t-51 -65z" />
    <glyph glyph-name="uniE613" unicode="&#xe613;" 
d="M868 436q-3 0 -7.5 -1t-23 -8t-53.5 -22.5t-101 -44t-165 -72.5l45 370q2 15 -7 26.5t-23 13.5h-9l-10 2h-9t-9.5 0.5t-9.5 0.5h-9q-113 0 -212 -52t-162.5 -144t-77.5 -205q-11 -92 15 -180t79 -156t132.5 -114t171.5 -57q28 -4 55 -4q114 0 212.5 52.5t162.5 144
t77 204.5q14 116 -29 225q-9 21 -33 21zM861 198q-18 -144 -127.5 -241.5t-255.5 -97.5q-2 0 -4.5 0.5t-5.5 0.5h-6h-4h-6q-2 0 -5 0.5t-5.5 0.5t-5 0.5t-5.5 0.5q-104 13 -186 75t-122.5 156.5t-27.5 198.5q12 95 65.5 173t137 122t179.5 44h5h4h3l-48 -395
q-2 -21 14.5 -33t34.5 -4q254 112 357 156q23 -77 14 -157zM976 582q-40 94 -122 155.5t-183 74.5q-4 0 -8 -1t-7 -3.5t-5.5 -6t-2.5 -7.5l-45 -358q-1 -12 9 -20q6 -4 12 -4q4 0 8 2l333 140q3 2 6 5t5 7q3 8 0 16z" />
    <glyph glyph-name="uniE614" unicode="&#xe614;" 
d="M647 405h-49q-7 0 -12.5 -3t-9 -8.5t-3.5 -12.5v-98q0 -10 7.5 -17.5t17.5 -7.5h49q10 0 17 7.5t7 17.5v98q0 4 -1 8t-3.5 7t-5.5 5t-6.5 3t-7.5 1zM965 602h-710l-245 -270l245 -270h710q7 0 13.5 2t12 5t10 7.5t7.5 10t4.5 12t1.5 12.5v442q0 20 -14 34.5t-35 14.5z
M230 283q-20 0 -34.5 14.5t-14.5 34.5t14.5 34.5t34.5 14.5q13 0 24.5 -6.5t18 -18t6.5 -24.5q0 -10 -4 -19t-10.5 -15.5t-15.5 -10.5t-19 -4zM500 210h-49v97h-74v-97h-49v245h49v-98h74v98h49v-245zM720 259q0 -14 -6.5 -25t-17.5 -17.5t-25 -6.5h-98q-20 0 -34.5 14
t-14.5 35v146q0 21 14.5 35t34.5 14h98q21 0 35 -14t14 -35v-146zM941 405h-74v-195h-49v195h-73v50h196v-50z" />
    <glyph glyph-name="uniE615" unicode="&#xe615;" 
d="M389 460l173 -173l-173 -173l48 -49l181 181l32 33h1l7 8l-7 7h-1l-213 214z" />
    <glyph glyph-name="uniE616" unicode="&#xe616;" 
d="M845 321l-3 -3l-301 -301h-1l-2 -2q-37 -36 -86 -48.5t-98.5 0.5t-85.5 50q-56 55 -56.5 134.5t54.5 135.5q2 2 346 347q26 26 61 35t70 0t61 -35q39 -40 39 -96q0 -18 -4.5 -35t-13.5 -32.5t-22 -28.5l-347 -347q-22 -20 -51.5 -19t-50.5 22q-14 14 -19.5 32t-1 37
t18.5 33l1 2v0l1 1l302 302q6 6 6 14.5t-6 14.5t-14.5 6t-14.5 -6l-301 -302l-2 -1v-1l-4 -3q-2 -2 -3 -4q-28 -35 -26 -79t34 -75q32 -33 78.5 -34t80.5 30q0 1 1 1l347 347q52 52 52 125t-51 125q-26 25 -59 38t-66.5 13t-66.5 -13t-58 -38l-173 -173l-119 -120l-54 -53
v-1q-67 -68 -66.5 -164.5t68.5 -163.5q68 -68 165 -68q94 0 161 64h1l1 1l2 2v1l302 302h1l1 1q6 6 6.5 14.5t-5.5 14.5t-14.5 6.5t-14.5 -5.5z" />
    <glyph glyph-name="uniE617" unicode="&#xe617;" 
d="M129 111q0 -26 18 -45t45 -19h254v-127h-317q-27 0 -50 9.5t-40.5 27t-27.5 41t-10 49.5v638q0 26 10 49t27.5 40.5t40.5 27.5t50 10h764q27 0 50 -10t40.5 -27.5t27.5 -40.5t10 -49v-189l-128 -4v2q0 26 -18.5 44.5t-45.5 18.5h-637q-27 0 -45 -18.5t-18 -44.5v-383z
M733 497q60 0 113 -23t92 -62.5t62 -92.5t23 -113t-23 -112.5t-62 -91.5t-92 -61.5t-113 -22.5t-112.5 22.5t-91.5 61.5t-62 91.5t-23 112.5t23 113t62 92.5t91.5 62.5t112.5 23zM805 239l89 84l-44 47l-101 -98l32 -33h-107l33 42l-94 91l-39 -51l86 -82h-86v-64h128v-64
h-128v-64h128v-63h64v63h127v64h-127v64h127v64h-88z" />
    <glyph glyph-name="uniE618" unicode="&#xe618;" 
d="M956 23q-4 12 -12 21.5t-20 16t-22 10.5t-26 9.5t-25 8.5q-14 6 -64 27.5t-76 32.5q-5 1 -12 3l-14 4q-7 2 -12 3q-13 9 -38 63q-4 0 -8.5 1t-8.5 1.5t-8 0.5q1 10 4 17t6.5 10.5t8 9.5t6.5 12t2.5 14.5t0.5 15.5t1.5 15t4.5 14q4 6 14.5 11.5t13.5 9.5q9 12 13 36
q4 20 4 34.5t-7 34.5q-1 3 -3 6.5t-3.5 5.5t-2.5 5.5t-1 8.5q-1 10 2 47t3 38q1 30 -8 64q0 1 -0.5 3t-3 7t-5 9.5t-6.5 9t-8 6.5l-29 5l-17 17q-21 12 -44 17.5t-41 5t-40.5 -5.5t-34 -9.5t-28.5 -11.5q-106 -34 -71 -200q2 -9 -0.5 -17t-6 -14t-3.5 -11q0 -3 0.5 -12
t1.5 -16t2 -17t3 -17.5t4.5 -15t6.5 -13.5t8 -9q1 -1 6 -2t9 -2t4 0q1 -13 3.5 -37t3.5 -37q3 -6 12.5 -17t12.5 -24l-19 -4q0 -2 -2 -6t-3.5 -6.5t-3.5 -6.5t-3.5 -7.5t-3.5 -7.5t-4 -7t-4.5 -6.5t-4.5 -6.5t-4.5 -5t-4.5 -4q-2 -1 -5.5 -1.5t-6 -1.5t-5 -1.5t-5.5 -1.5
t-5.5 -1.5t-5.5 -1.5t-5 -1q-26 -11 -76 -32.5t-64 -27.5q-9 -3 -30.5 -11t-32.5 -12.5t-24 -16t-18 -26.5q0 -9 -1 -61.5t-1 -74.5h392l28 196l-24 50l56 27l46 -26l-26 -52l46 -195h374q0 16 -0.5 43.5t-1 54.5t-0.5 38z" />
    <glyph glyph-name="uniE619" unicode="&#xe619;" 
d="M809 368h-225l55 444l-444 -580h225l-54 -444z" />
    <glyph glyph-name="uniE61A" unicode="&#xe61a;" 
d="M857 611l-218 39q1 -5 3 -13t5 -29.5t3 -39.5v-102v-114q0 -22 -19.5 -36.5t-48 -18t-57 0t-48 19t-19.5 37.5v48v31v11q0 3 2 6t5 5t7 2t7 -2t5 -5t2 -7v-86q0 -22 34 -32t67.5 -1t34.5 33q1 88 0 236q0 25 -8 44.5t-21 31.5t-28.5 20.5t-30.5 11.5t-28 5t-21 1h-8h-140
q-20 0 -40.5 -4.5t-46 -20t-45 -39.5t-32.5 -67.5t-13 -100.5v-87v-151v-132q0 -15 -10.5 -26t-25 -11t-25 11t-10.5 26v79v14q0 20 -13 35t-31.5 15t-31.5 -15t-13 -35v-80v-1v-1v-1v-3q0 -53 38 -90.5t92 -37.5t92 37.5t38 90.5v7v5v21v50q0 17 13 29t31 12t31 -12t13 -29
v-50v-189q0 -12 9 -21t21 -9l174 15q13 0 21.5 9t8.5 21v169v5h1q3 16 19 16h157q7 0 12.5 -4.5t6.5 -11.5h1v-5v-156q0 -8 4 -15t11 -11t15 -4l184 -25q13 0 21.5 8.5t8.5 21.5v186h1v295q0 28 -8.5 53t-22.5 43.5t-31.5 33t-36.5 23.5t-36.5 13.5t-31.5 4.5zM328 558
q-4 -5 -10 -11q-7 7 -16 7q-10 0 -17 -7t-7 -17q0 -3 0.5 -5.5t1.5 -4.5q-11 -5 -20 -5q-14 1 -6 31q2 6 5 11.5t7.5 9t10 6.5t11.5 4.5t12 1.5q29 1 32 -12q-1 -5 -4 -9zM877 610l-238 40q11 -39 11 -82v-220q0 -2 -0.5 -5.5t-6.5 -12.5t-15 -16t-28.5 -13t-45.5 -6.5
t-46 5.5t-29 14.5t-15.5 17.5t-5.5 15t0 7v90q1 12 14 13q3 0 6 -1.5t4.5 -3.5t2 -4t1.5 -4v-1l1 -89q0 -4 3 -9.5t20 -15t46 -9.5q10 0 18.5 1.5t15 3t11.5 4t8 5t5.5 5t4 5t2 4.5t0.5 3l1 1v246v8q0 6 -4.5 21.5t-13 28t-27 26t-44.5 19.5q-2 1 -4.5 2t-14 2.5t-25.5 1.5
h-162q-6 0 -15.5 -1t-35 -11t-46.5 -26.5t-40.5 -52t-25.5 -82.5q-4 -31 -4 -52v-382q-1 -1 -1 -3t-0.5 -3.5t-2.5 -3.5l-2 -6q-2 -2 -4 -4.5t-5 -4.5t-7 -3.5t-9 -2.5l-3 -1q-3 0 -8.5 1.5t-10.5 4t-10 9.5t-7 17l-1 105q0 1 -0.5 4t-3.5 10t-7 12.5t-13 10.5t-20 6
q-2 0 -4.5 -0.5t-9.5 -3t-12.5 -6.5t-11 -12.5t-7.5 -20.5l1 -111q1 -3 2 -8t5.5 -18t12 -25t22 -25.5t33.5 -21.5q75 -33 133 15q43 35 49 80q2 3 2 43l1 67q1 4 3 9.5t13 15.5t27 10.5t27 -8.5t14 -18l2 -9v-248q1 -1 1.5 -3.5t3.5 -7.5t7 -9t11 -6t15 0l172 15q3 0 7 1.5
t11 9t7 18.5v174q0 1 0.5 2t2.5 3.5t4 4.5t5.5 4t7.5 2l159 -1h2q1 0 3 -1t4 -2.5t4.5 -4.5t4.5 -7h-1l1 -165q0 -1 0.5 -3t2.5 -6.5t6 -8.5t11.5 -7t17.5 -2l144 -20l32 -4h1q1 0 3 1h4q2 1 5 2l4 4q3 1 5.5 3t4 5t2.5 7t1 8v494l-7 34q-28 94 -129 120q-5 1 -10 3z
M330 561l-12 -14q-6 6 -13.5 6.5t-11.5 -1.5l-5 -2q-7 -5 -9 -12.5t0 -12.5l1 -5l-14 -4q-7 -2 -13 3q-6 22 9 42q11 12 25.5 16t23.5 2l9 -2q7 -3 10 -6.5t2 -6.5z" />
    <glyph glyph-name="uniE61B" unicode="&#xe61b;" 
d="M512 236v-192l-384 320l384 320v-192q8 -1 22 -4t53.5 -19t76 -39.5t81 -68.5t76 -102.5t53.5 -147t22 -195.5q0 10 -26 62q-79 163 -216 225q-67 30 -142 33z" />
    <glyph glyph-name="uniE61C" unicode="&#xe61c;" 
d="M64 492v-384h128l256 -192v768l-256 -192h-128zM631 484q-10 8 -23 8t-22.5 -8t-9.5 -19.5t9 -19.5q2 -1 4 -3.5t8 -9.5t11 -14.5t11 -20.5t10.5 -26.5t7.5 -32t3 -38.5q0 -27 -5.5 -52t-13 -40t-16.5 -28.5t-13 -18t-7 -6.5q-9 -8 -9 -19.5t9.5 -19.5t22.5 -8t23 8l9 9
q5 5 17.5 22.5t22 37t17 50.5t7.5 65t-7.5 65t-17 50.5t-22 37t-17.5 23.5zM814 649q-8 3 -16 2.5t-15 -5t-11 -11.5q-4 -9 -3.5 -17t5 -15t11.5 -11q3 -2 8 -5t16.5 -14t21.5 -24.5t22.5 -38t21.5 -52.5t15 -69.5t6 -88.5q0 -64 -11.5 -118t-25.5 -83.5t-33 -52.5t-27 -29
t-13 -8q-12 -6 -16.5 -18.5t1.5 -24.5q9 -18 29 -18q7 0 14 3q8 4 18.5 11.5t35 35t43.5 63t34 99.5t15 140t-15 140t-34 99.5t-43.5 63t-35 35t-18.5 11.5z" />
    <glyph glyph-name="uniE61D" unicode="&#xe61d;" 
d="M714 382.5q0 69.5 -46 128t-125.5 93t-172.5 34.5t-172 -34.5t-125 -93t-46 -128.5q0 -42 17.5 -81t49 -70.5t74.5 -54.5l-68 -125q207 79 207 80q32 -5 63 -5q93 0 172.5 34.5t125.5 93.5t46 128.5zM997 293q0 42 -15.5 81t-43.5 70.5t-65 55t-81.5 36.5t-90.5 14
q49 -53 66.5 -111t5 -108t-45 -95.5t-78.5 -78t-101 -52t-108 -19.5q1 -2 4 -5t17 -11.5t35 -15t63 -12t95 -5.5q8 0 16 0.5t15.5 1t15.5 1.5l16 2q0 -1 207 -80q-67 124 -68 124q43 24 74.5 55.5t49 70.5t17.5 81z" />
    <glyph glyph-name="uniE61E" unicode="&#xe61e;" 
d="M959 312q1 -7 -1 -13l-80 -356l-2 -4q-1 -2 -2 -3.5t-2 -3.5q-14 -27 -39 -44q-27 -17 -59 -17l-518 1l-5 -1q-3 0 -6 1h-137l-6 -1q-8 0 -15 3t-12 8t-7.5 12t-2.5 14v448q0 15 11 26t26 11h2h3h123v1q86 6 145.5 68t62.5 149q-1 5 -1 9q0 45 32 77t77 32q38 0 67.5 -24
t37.5 -60h1q9 -43 9 -85q0 -23 -2.5 -45t-7.5 -43t-12 -41h208q3 0 6 -1q59 -2 90 -52q9 -15 13 -32t3 -34zM139 -54h75v373l-75 -1v-372v0zM880 339q-11 18 -33 17v0h-263q-15 0 -26 11t-11 27q0 8 4 16q7 14 13 29t10.5 30t7.5 31h1q0 2 1 6.5t2.5 20t1.5 32.5
q0 6 -0.5 12.5t-1 12.5t-1 11t-1 9t-1 7t-0.5 5l-1 1v1v1q0 15 -10 25t-24.5 10t-25 -10t-10.5 -25v-2q0 -29 -5 -60q-3 -16 -9 -34h-1q-23 -72 -79 -124t-129 -71l-1 -382h486h5q7 1 14 5q9 6 13 16l78 342q1 3 1 6v6q0 3 -0.5 6t-1.5 6t-3 6z" />
    <glyph glyph-name="uniE61F" unicode="&#xe61f;" horiz-adv-x="1000" 
d="M845 -126h-63q-7 15 -17.5 28t-24.5 22.5t-30.5 14.5t-34.5 5q-35 0 -64 -19.5t-43 -50.5h-136q-14 31 -43 50.5t-64.5 19.5t-64.5 -19.5t-42 -50.5h-39q-46 0 -78.5 32.5t-32.5 78.5v666q0 18 5.5 35t15.5 30.5t24 23.5t31 16t35 6h39q13 -32 42 -51t64.5 -19t64.5 19
t43 51h136q14 -32 43 -51t64.5 -19t64 19t42.5 51h63q46 0 78.5 -32.5t32.5 -78.5v-666q0 -46 -32.5 -78.5t-78.5 -32.5zM258 348q-41 11 -41 27q1 21 29 22q12 0 28 -5q3 -1 5.5 -2t4.5 -1.5t4 -0.5t3.5 -0.5t2.5 -0.5q23 2 24 27q-3 31 -70 35q-83 -5 -89 -81
q11 -64 75 -69q45 -14 45 -31q-1 -15 -10 -22.5t-27 -8.5q-12 0 -35 8q-18 6 -25 6q-12 -1 -18 -7t-6 -18q1 -37 87 -38q87 4 93 80q-14 74 -80 80zM567 224l-70 196q-13 29 -40 29q-27 -1 -38 -29l-73 -196v-2q-1 -6 -1 -10q1 -23 25 -23q20 0 27 17l11 34h100l10 -34
q7 -17 26 -17q3 0 5.5 0.5t4.5 0.5l4 2q2 0 3.5 1t2.5 3l2 2l2 4t1 4t1 4q0 6 -3 14zM703 238h-63v182q-1 13 -7.5 20t-19.5 8q-12 -1 -19 -8t-8 -20v-201q2 -28 27 -30h90q22 2 27 24q-2 25 -27 25zM852 293q12 1 18.5 7.5t8.5 18.5q-2 11 -8.5 17.5t-18.5 7.5h-59v52h63
q24 1 26 25q-1 8 -4 13t-8.5 8t-13.5 3h-90q-26 0 -26 -31v-198q1 -25 26 -27h93q12 1 18.5 7.5t6.5 18.5q-1 23 -25 23h-66v55h59zM457 393l34 -104h-68z" />
    <glyph glyph-name="uniE620" unicode="&#xe620;" 
d="M801 600h-578q-5 0 -10 -2t-8.5 -4.5t-6.5 -6.5t-4.5 -8.5t-1.5 -9.5v-537q0 -13 9 -22t22 -9h578q8 0 15 4t11.5 11t4.5 16v537q0 5 -2 9.5t-4.5 8.5t-6.5 6.5t-8.5 4.5t-9.5 2zM726 444l-209 -290q-8 -11 -21 -12q-2 -1 -3 -1q-12 0 -21 8l-129 115q-9 9 -10 21.5
t7.5 22t21.5 10.5t22 -8l104 -92l188 262q7 10 19.5 12t23 -5.5t12.5 -20t-5 -22.5z" />
    <glyph glyph-name="uniE621" unicode="&#xe621;" 
d="M511 749q-61 0 -119 -16.5t-107 -45t-90.5 -70t-70.5 -91t-45 -107.5t-16 -119t16 -119t45 -107t70.5 -90.5t90.5 -70.5t107 -45t119 -16q92 0 175 35.5t143 95.5t95.5 143t35.5 174t-35.5 174t-95.5 143.5t-143 96t-175 35.5zM711 327v-80h-159v-39l160 1v-81h-160v-81
h-79v81l-160 -1v80l160 1l-1 38h-159v79l149 1l-167 166l56 57l160 -160l160 161l57 -56l-167 -168z" />
    <glyph glyph-name="uniE622" unicode="&#xe622;" 
d="M513.5 -149.5q91.5 0.5 174.5 36.5t143 96t95.5 143.5t35 175t-36.5 174.5t-96 143t-143.5 95.5t-175 35t-174.5 -36t-143 -96t-95.5 -144t-35 -175t36.5 -174.5t96 -143t143.5 -95.5t175 -35zM454 515q0 13 9.5 22.5t22.5 9.5h50q9 0 16.5 -4t11.5 -11.5t4 -16.5l1 -221
q0 -6 -1.5 -10.5t-4.5 -8.5t-7 -7t-9 -5t-10 -2h-50q-13 0 -22.5 9.5t-9.5 22.5zM455 135q0 9 4.5 16t12 11.5t15.5 4.5h51q13 0 22.5 -9t9.5 -23v-50q0 -13 -9.5 -22.5t-22.5 -9.5h-50q-14 0 -23 9t-9 23z" />
    <glyph glyph-name="uniE623" unicode="&#xe623;" 
d="M512 786q-99 0 -189 -38.5t-155 -103.5t-103.5 -155t-38.5 -189t38.5 -189t103.5 -155t155 -103.5t189 -38.5q79 0 153.5 24.5t134 69.5t104.5 104.5t69.5 134t24.5 153.5t-24.5 153.5t-69.5 134t-104.5 104.5t-134 69.5t-153.5 24.5zM415 41l-195 194l65 130l130 -130
l324 324l65 -129z" />
    <glyph glyph-name="uniE624" unicode="&#xe624;" 
d="M555 300l400 -400l-43 -43l-400 400l-400 -400l-43 43l400 400l-400 400l43 43l400 -400l400 400l43 -43z" />
    <glyph glyph-name="uniE625" unicode="&#xe625;" 
d="M989 282h-424v-459h-71v459h-459v71h459v424h71v-424h424v-71z" />
    <glyph glyph-name="uniE626" unicode="&#xe626;" 
d="M959 -180v54q0 16 -2.5 42t-8 39t-15 32t-24.5 34.5t-37 34.5q-38 31 -105.5 51t-131.5 26.5t-130 6.5q-115 0 -207 -18.5t-145 -65.5q-38 -35 -54.5 -58.5t-25.5 -64.5t-9 -113h895zM800 492q0 -47 -15 -91t-41.5 -79.5t-62 -62t-79 -41t-90.5 -14.5q-79 0 -145 38.5
t-104.5 105t-38.5 144.5q0 119 84 203.5t204 84.5q78 0 144 -38.5t105 -105t39 -144.5z" />
    <glyph glyph-name="uniE627" unicode="&#xe627;" 
d="M831 364h-63l1 185q0 23 -7 45.5t-19.5 42.5t-30 37t-39.5 30.5t-47.5 23.5t-54 15.5t-58.5 5.5q-42 0 -81 -10.5t-70.5 -28.5t-55 -42.5t-36.5 -55t-13 -63.5l-1 -185h-64q-26 0 -44.5 -17.5t-18.5 -38.5l-2 -401q0 -21 20 -38.5t46 -17.5h640q25 0 43.5 17.5t18.5 38.5
l2 401q0 21 -20 38.5t-46 17.5zM639 364h-255v192q0 27 17.5 48.5t47 33t64.5 11.5t64 -11.5t46 -33t17 -48.5z" />
    <glyph glyph-name="uniE628" unicode="&#xe628;" 
d="M16 796zM506 757q-75 -1 -144 -25t-124.5 -67t-97 -100t-64 -127t-21.5 -144q2 -93 39 -177t99 -144.5t147 -95.5t178 -33.5t177 38.5t144.5 99t95.5 147t34 178q-1 53 -13.5 104.5t-36 96t-55 84t-71.5 70t-85.5 52.5t-97 33t-104.5 11zM557 605q32 0 46 -16t14 -42
q0 -31 -23 -52.5t-61 -21.5q-32 0 -48 15t-15 43q0 27 22.5 50.5t64.5 23.5zM437 15q-60 0 -32 103l36 151q5 19 5 25.5t-5 7.5q-3 0 -12 -3t-19.5 -7.5t-22.5 -10.5t-21 -12l-16 26q55 46 114 74.5t90 28.5q16 0 23.5 -12t6.5 -33.5t-9 -50.5l-41 -158q-2 -6 -3 -12
t-1.5 -10t0 -7t1.5 -4.5t2.5 -2.5t3.5 -1q8 0 29 9.5t42 25.5l18 -24q-21 -21 -45 -39t-44.5 -29.5t-40 -20t-34 -12t-25.5 -3.5v1z" />
    <glyph glyph-name="uniE629" unicode="&#xe629;" 
d="M623 311q32 26 50.5 62.5t18.5 79.5q0 74 -53 126.5t-127 52.5t-127 -52.5t-53 -126.5q0 -43 18.5 -79.5t50.5 -62.5q-33 -13 -62 -33.5t-52 -47t-39.5 -57.5t-25.5 -66.5t-9 -72.5v-60q0 -13 8.5 -21.5t21.5 -8.5h538q13 0 21.5 8.5t8.5 21.5v60q0 93 -52 168.5
t-136 108.5zM802 322q19 21 29 47t10 54q0 62 -43.5 105.5t-105.5 43.5h-4h-4q20 -29 30 -62h-1q5 -13 9.5 -33.5t-4.5 -72.5t-45 -90q8 -4 13.5 -6.5t25 -15t33.5 -25.5t33.5 -37t32 -50.5t21.5 -65t9 -80.5v0h60q13 0 21.5 8.5t8.5 20.5v47q0 34 -9 66t-26 59t-41 49.5
t-53 37.5zM351 314q-23 24 -35.5 53t-14 53t0 45t5.5 33l3 12q4 11 8 21.5t9.5 20.5t12.5 20h-4h-4q-62 0 -105.5 -43.5t-43.5 -105.5q0 -28 10 -54t29 -47q-59 -30 -94 -87t-35 -125v-47q0 -12 8.5 -20.5t21.5 -8.5h60q0 42 9 80.5t21.5 65t32 50.5t33.5 37t33.5 25.5
t25 15t13.5 6.5z" />
    <glyph glyph-name="uniE62A" unicode="&#xe62a;" 
d="M443 659h131l-67 149zM512 620q131 0 224 -93t93 -225t-93 -225t-224.5 -93t-224.5 93t-93 225t93 225t225 93zM631 646l113 -66l16 162zM787 540l65 -113l95 132zM869 371v-131l149 67zM856 183l-66 -113l162 -16zM750 27l-113 -65l132 -95zM581 -55h-131l67 -149z
M393 -42l-114 66l-16 -163zM237 63l-66 114l-95 -132zM155 233v131l-149 -67zM168 421l65 113l-162 16zM273 577l114 65l-133 95z" />
    <glyph glyph-name="uniE62B" unicode="&#xe62b;" 
d="M948 598l-42 -41l-138 138l41 41q6 6 13 9t14.5 3t14.5 -2.5t12 -7.5l87 -86q10 -11 9.5 -26.5t-11.5 -27.5zM580 233l-139 138l305 303l139 -138zM561 213l-194 -55l55 193zM241 639q-24 0 -44 -12t-31.5 -32t-11.5 -43v-524q0 -35 25.5 -60.5t61.5 -25.5h523
q24 0 43.5 11.5t31.5 31.5t12 43v344l89 87v-462q0 -60 -43.5 -102.5t-103.5 -42.5h-584q-60 0 -102.5 42.5t-42.5 102.5v578q0 39 19.5 74.5t53 57t72.5 21.5h462l-86 -89h-344z" />
    <glyph glyph-name="uniE62C" unicode="&#xe62c;" 
d="M398 448q0 6 -1.5 11.5t-5 10.5t-8 8.5t-10.5 5t-12 1.5q-15 0 -26 -11t-11 -26v-453q0 -15 11 -26t26.5 -11t26 11t10.5 26v453zM549 448q0 8 -3 14.5t-8 11.5t-11.5 8t-14.5 3q-15 0 -26 -11t-11 -26v-453q0 -15 11 -26t26 -11t26 11t11 26v453zM700 448q0 15 -11 26
t-26.5 11t-26 -11t-10.5 -26v-453q0 -10 4.5 -18.5t13.5 -13.5t19 -5t18.5 5t13.5 13.5t5 18.5v453zM799 -125h-574v693h-87v-780h748v780h-87v-693zM695 742q-29 0 -49.5 20.5t-20.5 49.5h-226q0 -29 -20.5 -49.5t-49.5 -20.5h-236v-99h838v99h-236z" />
    <glyph glyph-name="uniE62D" unicode="&#xe62d;" 
d="M828 812h-599q-31 0 -53 -22t-22 -54v-869q0 -12 4 -23.5t10.5 -21t16 -16.5t21 -11t23.5 -4h599q20 0 37.5 10.5t27.5 28t10 37.5v869q0 32 -22 54t-53 22zM547.5 -171q-23.5 0 -40 16.5t-16.5 40t16.5 40.5t39.5 17q12 0 22.5 -4.5t18 -12.5t11.5 -18.5t4 -21.5
q0 -24 -16 -40.5t-39.5 -16.5zM828 94q0 -21 -10 -38.5t-27 -27.5t-38 -10h-449q-31 0 -53 22t-22 54v567q0 20 10 37.5t27 27.5t38 10h449q21 0 38 -10t27 -27.5t10 -37.5v-567z" />
    <glyph glyph-name="uniE62E" unicode="&#xe62e;" 
d="M728 397q-45 0 -87 -14t-76 -39.5t-59.5 -59.5t-39.5 -76t-14 -87q0 -114 81 -195t195 -81q56 0 107 22t88 59t59 88t22 107q0 45 -14 87t-39.5 76t-59.5 59.5t-76 39.5t-87 14zM809 -18q-16 -33 -42.5 -42t-76.5 -4q-18 2 -37 21t-33 46t-26.5 59t-20 57.5t-11.5 43.5
q-4 19 0.5 32t14.5 18t19 7t19 1q14 0 20 -7.5t22 -38.5q3 -7 5 -11q3 -6 10.5 -21.5t11.5 -23t11 -20t11.5 -19.5t10 -14t10.5 -10.5t9 -3.5q5 11 13 28.5t23.5 53.5t20.5 52q5 17 13.5 27t17.5 12.5t19 0.5q9 -2 19 -10t17 -18.5t7 -19.5q0 -23 -59 -158q-11 -24 -18 -38z
M597 514q0 100 -70.5 170.5t-170.5 70.5t-171 -70.5t-71 -170.5q0 -66 32.5 -121.5t87.5 -87.5q-20 -7 -40 -15t-46 -20.5t-47.5 -28t-41 -34t-30.5 -41t-11 -46.5q0 -21 -0.5 -51t-0.5 -43t1 -32.5t5 -27.5t11 -18t18.5 -14.5t28.5 -8.5q61 -11 258 -10q92 -1 157 2
q-76 89 -76 206q0 30 6.5 62.5t18 62t27.5 54.5q37 20 65.5 52t44 73.5t15.5 86.5zM339 127l-58 157q18 -6 36.5 -9t38.5 -3q19 0 38 3z" />
    <glyph glyph-name="uniE62F" unicode="&#xe62f;" 
d="M923 672v-457q0 -20 -5 -40.5t-16 -40.5q-20 -41 -53 -79q-9 -10 -17.5 -19t-18 -18t-20 -18t-20.5 -17q-43 -35 -87 -61q-44 -27 -85 -45q-21 -8 -39 -14t-34 -10l-10 -1l-9 1q-16 4 -34.5 10t-39.5 14.5t-43 19.5t-45 24.5t-45.5 29t-44.5 32.5q-44 34 -78 72
q-17 19 -31 38.5t-25 40.5q-21 40 -21 81v457l33 5l378 71l385 -71zM513 682h-4l-325 -55v-288h329v343zM840 339h-327v-410q7 2 13.5 3.5t13 3.5t13.5 4l14 6q7 2 15 5q37 15 73 35q18 11 35.5 22t34.5 24q33 24 58.5 52.5t41.5 59.5q2 5 4.5 10.5t4.5 10.5l2 10
q2 5 2.5 10.5t1 10.5t0.5 10v133z" />
    <glyph glyph-name="uniE630" unicode="&#xe630;" 
d="M960 -24q-14 0 -19 12q-8 18 -30 46t-54 54q-26 21 -56.5 38.5t-64.5 29.5q-29 10 -60 17t-64 10.5t-68 3.5q-71 0 -152 -15v-166q0 -14 -13 -19.5t-23 4.5l-307 307q-3 3 -4.5 7t-1.5 8t1.5 8t4.5 7l307 307q10 10 23 5q6 -3 9.5 -8.5t3.5 -11.5v-161q9 1 18 1.5t21.5 1
t24.5 0.5q193 0 324 -76q23 -14 43.5 -29.5t38.5 -33t33 -37.5t28 -42q58 -102 58 -247q0 -17 -16 -21h-3h-2zM94 313l256 -256v133q0 4 1 7.5t3.5 6t5.5 4.5t7 3q46 9 91 14t86 5q114 0 208 -35q75 -27 134 -76q26 -21 48 -47q-12 94 -56 163.5t-119 113.5q-36 21 -77 35.5
t-81.5 21.5t-75 10t-69.5 3q-49 0 -82 -4q-2 -1 -4.5 -0.5t-4.5 1t-4 1.5t-4 3t-4 4.5t-2.5 5.5t-0.5 6v132z" />
  </font>
</defs>
</svg>
